<svg width="40" height="49" viewBox="0 0 40 49" fill="none" xmlns="http://www.w3.org/2000/svg">
<path d="M17.9221 0.211969C15.2586 0.660023 12.4707 2.5518 10.9523 4.91653C10.579 5.53883 10.2554 6.11134 10.2554 6.18601C10.2554 6.26069 11.3008 6.2358 12.5703 6.11134C14.5617 5.9122 14.9599 5.78774 15.6818 5.16545C17.5736 3.49769 21.9048 3.19899 24.3939 4.56804C26.5595 5.73796 28.0282 8.32671 28.3766 11.5378L28.5509 13.0313L30.6169 13.106L32.6829 13.1806L32.5087 11.8614C31.7122 5.14056 28.6505 1.15786 23.5476 0.236861C21.9297 -0.061841 19.6645 -0.0867329 17.9221 0.211969Z" fill="#16E9BF"/>
<path d="M15.3583 6.70875C5.22728 7.20659 1.71752 8.77477 0.398257 13.3549C-0.174256 15.2964 -1.31594e-05 19.8268 0.721851 21.3949C1.56817 23.2867 3.65909 24.9296 5.87446 25.5021L6.52165 25.6515V23.6601C6.52165 21.7932 6.47187 21.6439 5.87446 21.2456C4.8539 20.5735 4.28139 19.0302 4.28139 16.8397C4.28139 14.6741 4.5303 13.8278 5.4762 12.8321C6.89503 11.3386 8.73703 10.7661 13.3669 10.3927C15.2836 10.2434 19.2414 10.1687 22.1537 10.2185L27.4557 10.343L27.3064 9.69577C27.2068 9.34729 26.9081 8.52585 26.6592 7.90356L26.1613 6.75853L23.8962 6.58429C21.3821 6.41005 21.0834 6.41005 15.3583 6.70875Z" fill="#16E9BF"/>
<path d="M32.5085 7.97823C32.5832 8.30182 32.7823 9.27261 32.9566 10.1687C33.1059 11.0648 33.4295 12.0107 33.6535 12.2845C34.3754 13.1308 34.6492 13.8527 34.8484 15.3462L35.0226 16.7651L37.0637 16.8397L39.08 16.9144L38.9804 15.8441C38.7564 13.8527 38.3332 11.7867 38.0096 11.1644C37.4371 10.094 36.1676 8.9739 34.5994 8.17737C32.7325 7.25637 32.2845 7.23147 32.5085 7.97823Z" fill="#16E9BF"/>
<path d="M10.0316 11.4382C9.40931 11.5626 8.83679 11.7369 8.73723 11.8365C8.63766 11.9609 8.28917 13.2055 7.96558 14.6492C7.46774 17.0389 7.41796 17.9101 7.39307 24.8549C7.39307 31.1028 7.46774 32.8701 7.84112 34.8116C8.09004 36.106 8.36385 37.251 8.46342 37.3506C8.73723 37.6244 12.7448 37.8982 12.7448 37.6493C12.7448 37.5249 12.5208 36.3549 12.247 35.0606C10.9526 28.9123 11.1517 17.4122 12.6204 12.3343L12.9688 11.1644L12.0478 11.1893C11.55 11.2142 10.629 11.3137 10.0316 11.4382Z" fill="#16E9BF"/>
<path d="M11.9976 24.2326V26.0995H18.4197C30.1188 26.0995 32.9814 26.448 34.45 28.0162C35.5701 29.2359 35.7693 29.8333 35.7444 32.198C35.7195 34.8365 35.1221 36.5541 33.9522 37.2262C33.3797 37.5497 33.1556 37.948 32.8569 39.2673C32.6329 40.1634 32.384 41.1093 32.2595 41.3831C32.1102 41.7814 32.1849 41.8311 32.9316 41.6818C33.4046 41.5822 34.6243 41.0844 35.6448 40.5866C37.1383 39.8398 37.6611 39.4415 38.3082 38.4707C39.4284 36.7781 39.6773 35.8571 39.8018 32.5465C40.0507 26.8711 38.5572 24.5313 33.9771 23.3365C32.3342 22.9133 30.766 22.7889 23.9456 22.6146C19.49 22.4902 14.9846 22.3906 13.9391 22.3657H11.9976V24.2326Z" fill="#16E9BF"/>
<path d="M0.0995674 33.6417C0.27381 38.7197 2.06602 40.6115 7.76626 41.7814C9.80739 42.2045 18.868 42.553 22.6765 42.3788L25.9871 42.2045L26.709 40.6861C27.1072 39.8398 27.4308 39.0433 27.4308 38.9188C27.4308 38.7446 25.2901 38.6948 21.183 38.7695C11.5747 38.8939 6.77058 38.2965 5.35175 36.7283C4.48053 35.7824 4.23162 35.0606 4.10716 33.0443L3.9578 31.0779H1.96646H0L0.0995674 33.6417Z" fill="#16E9BF"/>
<path d="M28.4511 37.2013C27.7541 40.9848 26.2108 43.474 23.8461 44.6439C21.108 45.9881 17.648 45.6894 15.6069 43.947C14.661 43.1255 14.5117 43.1006 12.1967 42.9762C10.8526 42.9015 9.75732 42.9264 9.75732 43.0011C9.75732 43.2998 11.0766 45.1418 11.9727 46.0877C13.6902 47.9297 16.6773 49 20.0128 49C25.937 49 29.7953 46.237 31.6871 40.6612C32.0604 39.566 32.4587 37.9729 32.5583 37.1017L32.7325 35.5584H30.7412H28.7498L28.4511 37.2013Z" fill="#16E9BF"/>
</svg>
