<svg width="39" height="48" viewBox="0 0 39 48" fill="none" xmlns="http://www.w3.org/2000/svg">
<path d="M17.5493 0.207563C14.9413 0.646304 12.2113 2.49876 10.7245 4.81434C10.3589 5.4237 10.042 5.98432 10.042 6.05744C10.042 6.13056 11.0657 6.10619 12.3088 5.98432C14.2588 5.78932 14.6488 5.66745 15.3556 5.05809C17.2081 3.42499 21.4493 3.1325 23.8867 4.4731C26.0073 5.6187 27.4454 8.15365 27.7866 11.298L27.9572 12.7604L29.9803 12.8335L32.0034 12.9067L31.8328 11.6148C31.0528 5.03371 28.0547 1.13379 23.058 0.231937C21.4736 -0.0605564 19.2555 -0.0849309 17.5493 0.207563Z" fill="#477EEB"/>
<path d="M15.0388 6.56929C5.11835 7.05678 1.68154 8.59238 0.389696 13.0773C-0.170917 14.9785 -0.000295392 19.4146 0.706565 20.9502C1.5353 22.8027 3.58275 24.4114 5.75208 24.972L6.38582 25.1183V23.1683C6.38582 21.3402 6.33707 21.194 5.75208 20.804C4.75273 20.1459 4.19212 18.6347 4.19212 16.4897C4.19212 14.3691 4.43586 13.5404 5.36209 12.5654C6.75144 11.1029 8.55515 10.5423 13.0888 10.1767C14.9656 10.0305 18.8412 9.95735 21.693 10.0061L26.8848 10.128L26.7385 9.49423C26.641 9.15299 26.3485 8.34863 26.1048 7.73927L25.6173 6.61804L23.3992 6.44742C20.9374 6.2768 20.6449 6.2768 15.0388 6.56929Z" fill="#477EEB"/>
<path d="M31.8331 7.8124C31.9062 8.12927 32.1012 9.07987 32.2718 9.95735C32.4181 10.8348 32.735 11.7611 32.9543 12.0292C33.6612 12.8579 33.9293 13.5648 34.1243 15.0272L34.2949 16.4166L36.2936 16.4897L38.268 16.5628L38.1705 15.5147C37.9511 13.5648 37.5367 11.5417 37.2199 10.9323C36.6593 9.88423 35.4162 8.78738 33.8806 8.0074C32.0525 7.10554 31.6137 7.08116 31.8331 7.8124Z" fill="#477EEB"/>
<path d="M9.82271 11.2004C9.21335 11.3223 8.65273 11.4929 8.55524 11.5904C8.45774 11.7123 8.1165 12.931 7.79963 14.3447C7.31214 16.6847 7.26339 17.5378 7.23901 24.3383C7.23901 30.4563 7.31214 32.1869 7.67775 34.0881C7.9215 35.3555 8.18962 36.4768 8.28712 36.5743C8.55524 36.8424 12.4795 37.1105 12.4795 36.8668C12.4795 36.7449 12.2602 35.5993 11.992 34.3318C10.7246 28.3113 10.9196 17.0503 12.3577 12.0779L12.6989 10.9323L11.797 10.9567C11.3096 10.9811 10.4077 11.0786 9.82271 11.2004Z" fill="#477EEB"/>
<path d="M11.748 23.7289V25.557H18.0367C29.4927 25.557 32.2957 25.8983 33.7338 27.4338C34.8307 28.6282 35.0257 29.2132 35.0013 31.5288C34.9769 34.1125 34.3919 35.7943 33.2463 36.4524C32.6857 36.7693 32.4664 37.1593 32.1739 38.4511C31.9545 39.3286 31.7108 40.2548 31.5889 40.5229C31.4426 40.9129 31.5158 40.9617 32.247 40.8154C32.7101 40.7179 33.9045 40.2305 34.9038 39.743C36.3663 39.0117 36.8781 38.6217 37.5119 37.6711C38.6087 36.0137 38.8525 35.1118 38.9743 31.87C39.2181 26.3126 37.7556 24.0214 33.2707 22.8514C31.662 22.4371 30.1264 22.3152 23.4478 22.1446C19.0848 22.0227 14.673 21.9252 13.6493 21.9008H11.748V23.7289Z" fill="#477EEB"/>
<path d="M0.0974979 32.9425C0.268119 37.9149 2.02308 39.7674 7.60484 40.913C9.60355 41.3273 18.4759 41.6686 22.2052 41.4979L25.447 41.3273L26.1538 39.8405C26.5438 39.0117 26.8607 38.2318 26.8607 38.1099C26.8607 37.9393 24.7645 37.8905 20.7427 37.9636C11.3341 38.0855 6.62986 37.5005 5.24051 35.9649C4.38741 35.0387 4.14366 34.3318 4.02179 32.3575L3.87554 30.4319H1.92558H0L0.0974979 32.9425Z" fill="#477EEB"/>
<path d="M27.8599 36.428C27.1774 40.1329 25.6662 42.5704 23.3506 43.716C20.6695 45.0322 17.2814 44.7397 15.2827 43.0335C14.3565 42.2291 14.2102 42.2048 11.9434 42.0829C10.6272 42.0098 9.55469 42.0341 9.55469 42.1073C9.55469 42.3997 10.8465 44.2035 11.724 45.1297C13.4059 46.9334 16.3308 47.9815 19.597 47.9815C25.3981 47.9815 29.1761 45.2759 31.0286 39.8161C31.3942 38.7436 31.7842 37.1836 31.8817 36.3305L32.0523 34.8193H30.1024H28.1524L27.8599 36.428Z" fill="#477EEB"/>
</svg>
